<svg width="80" height="15" viewBox="0 0 80 15" fill="none" xmlns="http://www.w3.org/2000/svg">
<path d="M8.50421 0.772255L10.0408 5.2633L10.0987 5.43237H10.2774H15.2129L11.2313 8.17948L11.0754 8.28702L11.1367 8.46619L12.6645 12.9314L8.64619 10.159L8.50421 10.061L8.36224 10.159L4.34394 12.9314L5.87172 8.46619L5.93302 8.28702L5.77716 8.17948L1.79555 5.43237H6.73106H6.90975L6.96759 5.2633L8.50421 0.772255Z" fill="#FFCF0F" stroke="#FFCF0F" stroke-width="0.5"/>
<path d="M71.6864 0.772255L73.223 5.2633L73.2808 5.43237H73.4595H78.395L74.4134 8.17948L74.2576 8.28702L74.3189 8.46619L75.8466 12.9314L71.8283 10.159L71.6864 10.061L71.5444 10.159L67.5261 12.9314L69.0539 8.46619L69.1152 8.28702L68.9593 8.17948L64.9777 5.43237H69.9132H70.0919L70.1497 5.2633L71.6864 0.772255Z" fill="url(#paint0_linear_118_29)" stroke="#FFCF0F" stroke-width="0.5"/>
<path d="M55.8908 0.772255L57.4274 5.2633L57.4853 5.43237H57.664H62.5995L58.6179 8.17948L58.462 8.28702L58.5233 8.46619L60.0511 12.9314L56.0328 10.159L55.8908 10.061L55.7489 10.159L51.7305 12.9314L53.2583 8.46619L53.3196 8.28702L53.1638 8.17948L49.1822 5.43237H54.1177H54.2964L54.3542 5.2633L55.8908 0.772255Z" fill="#FFCF0F" stroke="#FFCF0F" stroke-width="0.5"/>
<path d="M40.0953 0.772255L41.6319 5.2633L41.6898 5.43237H41.8685H46.804L42.8224 8.17948L42.6665 8.28702L42.7278 8.46619L44.2556 12.9314L40.2373 10.159L40.0953 10.061L39.9533 10.159L35.935 12.9314L37.4628 8.46619L37.5241 8.28702L37.3682 8.17948L33.3866 5.43237H38.3221H38.5008L38.5587 5.2633L40.0953 0.772255Z" fill="#FFCF0F" stroke="#FFCF0F" stroke-width="0.5"/>
<path d="M24.2998 0.772255L25.8364 5.2633L25.8942 5.43237H26.0729H31.0084L27.0268 8.17948L26.8709 8.28702L26.9322 8.46619L28.46 12.9314L24.4417 10.159L24.2998 10.061L24.1578 10.159L20.1395 12.9314L21.6673 8.46619L21.7286 8.28702L21.5727 8.17948L17.5911 5.43237H22.5266H22.7053L22.7631 5.2633L24.2998 0.772255Z" fill="#FFCF0F" stroke="#FFCF0F" stroke-width="0.5"/>
<defs>
<linearGradient id="paint0_linear_118_29" x1="65.3682" y1="5.5" x2="74.242" y2="8.24839" gradientUnits="userSpaceOnUse">
<stop stop-color="#FFCF0F"/>
<stop offset="0.578125" stop-color="white"/>
</linearGradient>
</defs>
</svg>
