<svg width="80" height="15" viewBox="0 0 80 15" fill="none" xmlns="http://www.w3.org/2000/svg">
<path d="M7.93692 0.772255L9.47355 5.2633L9.53139 5.43237H9.71008H14.6456L10.664 8.17948L10.5081 8.28702L10.5694 8.46619L12.0972 12.9314L8.0789 10.159L7.93692 10.061L7.79495 10.159L3.77665 12.9314L5.30443 8.46619L5.36573 8.28702L5.20987 8.17948L1.22826 5.43237H6.16376H6.34245L6.4003 5.2633L7.93692 0.772255Z" fill="#FFCF0F" stroke="#FFCF0F" stroke-width="0.5"/>
<path d="M71.1191 0.772255L72.6557 5.2633L72.7136 5.43237H72.8922H77.8277L73.8461 8.17948L73.6903 8.28702L73.7516 8.46619L75.2794 12.9314L71.2611 10.159L71.1191 10.061L70.9771 10.159L66.9588 12.9314L68.4866 8.46619L68.5479 8.28702L68.392 8.17948L64.4104 5.43237H69.3459H69.5246L69.5825 5.2633L71.1191 0.772255Z" fill="url(#paint0_linear_121_31)" stroke="#FFCF0F" stroke-width="0.5"/>
<path d="M55.3235 0.772255L56.8602 5.2633L56.918 5.43237H57.0967H62.0322L58.0506 8.17948L57.8947 8.28702L57.956 8.46619L59.4838 12.9314L55.4655 10.159L55.3235 10.061L55.1816 10.159L51.1633 12.9314L52.691 8.46619L52.7523 8.28702L52.5965 8.17948L48.6149 5.43237H53.5504H53.7291L53.7869 5.2633L55.3235 0.772255Z" fill="#FFCF0F" stroke="#FFCF0F" stroke-width="0.5"/>
<path d="M39.528 0.772255L41.0646 5.2633L41.1225 5.43237H41.3012H46.2367L42.2551 8.17948L42.0992 8.28702L42.1605 8.46619L43.6883 12.9314L39.67 10.159L39.528 10.061L39.386 10.159L35.3677 12.9314L36.8955 8.46619L36.9568 8.28702L36.8009 8.17948L32.8193 5.43237H37.7548H37.9335L37.9914 5.2633L39.528 0.772255Z" fill="#FFCF0F" stroke="#FFCF0F" stroke-width="0.5"/>
<path d="M23.7325 0.772255L25.2691 5.2633L25.3269 5.43237H25.5056H30.4411L26.4595 8.17948L26.3036 8.28702L26.365 8.46619L27.8927 12.9314L23.8744 10.159L23.7325 10.061L23.5905 10.159L19.5722 12.9314L21.1 8.46619L21.1613 8.28702L21.0054 8.17948L17.0238 5.43237H21.9593H22.138L22.1958 5.2633L23.7325 0.772255Z" fill="#FFCF0F" stroke="#FFCF0F" stroke-width="0.5"/>
<defs>
<linearGradient id="paint0_linear_121_31" x1="67.96" y1="8" x2="74.8047" y2="8" gradientUnits="userSpaceOnUse">
<stop stop-color="#FFCF0F"/>
<stop offset="0.834738" stop-color="white"/>
</linearGradient>
</defs>
</svg>
