<?xml version="1.0" encoding="utf-8"?><svg xmlns="http://www.w3.org/2000/svg" xmlns:xlink="http://www.w3.org/1999/xlink" width="3000" height="1869" preserveAspectRatio="xMidYMid" viewBox="0 0 3000 1869" style="z-index:1;margin-right:-1.6px;display:block;background-repeat-y:initial;background-repeat-x:initial;background-color:rgb(255, 255, 255);animation-play-state:paused" ><g transform="translate(1500,934.5) scale(1,1) translate(-1500,-934.5)" style="transform:matrix(1, 0, 0, 1, 0, 0);animation-play-state:paused" ><linearGradient id="lg-0.11626268925704997" x1="0" x2="1" y1="0" y2="0" style="animation-play-state:paused" ><stop stop-color="#ff00ff" offset="0" style="animation-play-state:paused" ></stop>

  
<stop stop-color="#00ffff" offset="1" style="animation-play-state:paused" ></stop></linearGradient>
<path d="M 0 0 L 0 1823.48 Q 300 1685.37 600 1663.09 T 1200 1213.32 T 1800 981.247 T 2400 797.486 T 3000 672.946 L 3000 0 Z" fill="url(#lg-0.11626268925704997)" opacity="0.4" style="opacity:0.4;animation-play-state:paused" ></path>
<path d="M 0 0 L 0 1627.89 Q 300 1492.73 600 1456.9 T 1200 1332.52 T 1800 1263.98 T 2400 1112.71 T 3000 730.788 L 3000 0 Z" fill="url(#lg-0.11626268925704997)" opacity="0.4" style="opacity:0.4;animation-play-state:paused" ></path>
<path d="M 0 0 L 0 1597.65 Q 300 1588.58 600 1554.31 T 1200 1441.6 T 1800 1254.61 T 2400 798.469 T 3000 764.471 L 3000 0 Z" fill="url(#lg-0.11626268925704997)" opacity="0.4" style="opacity:0.4;animation-play-state:paused" ></path>
<path d="M 0 0 L 0 1678.86 Q 300 1517.04 600 1486.08 T 1200 1280.57 T 1800 1091.36 T 2400 935.266 T 3000 830.655 L 3000 0 Z" fill="url(#lg-0.11626268925704997)" opacity="0.4" style="opacity:0.4;animation-play-state:paused" ></path>
<path d="M 0 0 L 0 1673.36 Q 300 1556.35 600 1528.59 T 1200 1270.64 T 1800 1116.52 T 2400 1165.01 T 3000 914.608 L 3000 0 Z" fill="url(#lg-0.11626268925704997)" opacity="0.4" style="opacity:0.4;animation-play-state:paused" ></path></g></svg>