<svg id="visual" viewBox="0 0 8333 1832" width="8333" height="1832" xmlns="http://www.w3.org/2000/svg" xmlns:xlink="http://www.w3.org/1999/xlink" version="1.1"><rect x="0" y="0" width="8333" height="1832" fill="#001220"></rect><path d="M0 1498L173.7 1355.5C347.3 1213 694.7 928 1041.8 785C1389 642 1736 641 2083.2 635C2430.3 629 2777.7 618 3125 694.7C3472.3 771.3 3819.7 935.7 4166.8 972.2C4514 1008.7 4861 917.3 5208.2 875.5C5555.3 833.7 5902.7 841.3 6249.8 928.5C6597 1015.7 6944 1182.3 7291.2 1249.2C7638.3 1316 7985.7 1283 8159.3 1266.5L8333 1250L8333 0L8159.3 0C7985.7 0 7638.3 0 7291.2 0C6944 0 6597 0 6249.8 0C5902.7 0 5555.3 0 5208.2 0C4861 0 4514 0 4166.8 0C3819.7 0 3472.3 0 3125 0C2777.7 0 2430.3 0 2083.2 0C1736 0 1389 0 1041.8 0C694.7 0 347.3 0 173.7 0L0 0Z" fill="#1a8e04"></path><path d="M0 290L173.7 315C347.3 340 694.7 390 1041.8 477C1389 564 1736 688 2083.2 672C2430.3 656 2777.7 500 3125 467.5C3472.3 435 3819.7 526 4166.8 593C4514 660 4861 703 5208.2 748.3C5555.3 793.7 5902.7 841.3 6249.8 876.3C6597 911.3 6944 933.7 7291.2 878.7C7638.3 823.7 7985.7 691.3 8159.3 625.2L8333 559L8333 0L8159.3 0C7985.7 0 7638.3 0 7291.2 0C6944 0 6597 0 6249.8 0C5902.7 0 5555.3 0 5208.2 0C4861 0 4514 0 4166.8 0C3819.7 0 3472.3 0 3125 0C2777.7 0 2430.3 0 2083.2 0C1736 0 1389 0 1041.8 0C694.7 0 347.3 0 173.7 0L0 0Z" fill="#f7770f"></path></svg>