<svg id="visual" viewBox="0 0 8333 1831" width="8333" height="1831" xmlns="http://www.w3.org/2000/svg" xmlns:xlink="http://www.w3.org/1999/xlink" version="1.1"><rect x="0" y="0" width="8333" height="1831" fill="#FFFFFF"></rect><path d="M0 1456L154.3 1303C308.7 1150 617.3 844 926 671.2C1234.7 498.3 1543.3 458.7 1852 635.7C2160.7 812.7 2469.3 1206.3 2778 1183.3C3086.7 1160.3 3395.3 720.7 3703.8 481.2C4012.3 241.7 4320.7 202.3 4629.2 394.3C4937.7 586.3 5246.3 1009.7 5555 1160.3C5863.7 1311 6172.3 1189 6481 1058.3C6789.7 927.7 7098.3 788.3 7407 868.2C7715.7 948 8024.3 1247 8178.7 1396.5L8333 1546L8333 0L8178.7 0C8024.3 0 7715.7 0 7407 0C7098.3 0 6789.7 0 6481 0C6172.3 0 5863.7 0 5555 0C5246.3 0 4937.7 0 4629.2 0C4320.7 0 4012.3 0 3703.8 0C3395.3 0 3086.7 0 2778 0C2469.3 0 2160.7 0 1852 0C1543.3 0 1234.7 0 926 0C617.3 0 308.7 0 154.3 0L0 0Z" fill="#00941e"></path><path d="M0 477L154.3 516.3C308.7 555.7 617.3 634.3 926 696.8C1234.7 759.3 1543.3 805.7 1852 749.3C2160.7 693 2469.3 534 2778 514.8C3086.7 495.7 3395.3 616.3 3703.8 694.7C4012.3 773 4320.7 809 4629.2 723C4937.7 637 5246.3 429 5555 342.8C5863.7 256.7 6172.3 292.3 6481 394.7C6789.7 497 7098.3 666 7407 788.2C7715.7 910.3 8024.3 985.7 8178.7 1023.3L8333 1061L8333 0L8178.7 0C8024.3 0 7715.7 0 7407 0C7098.3 0 6789.7 0 6481 0C6172.3 0 5863.7 0 5555 0C5246.3 0 4937.7 0 4629.2 0C4320.7 0 4012.3 0 3703.8 0C3395.3 0 3086.7 0 2778 0C2469.3 0 2160.7 0 1852 0C1543.3 0 1234.7 0 926 0C617.3 0 308.7 0 154.3 0L0 0Z" fill="#f7770f"></path></svg>